<svg xmlns="http://www.w3.org/2000/svg" width="1541" height="208" viewBox="0 0 1541 208">
  <path fill="#FFF" fill-rule="evenodd" d="M79.7631236,89.7317274 L52.4794025,89.7317274 L52.4794025,205.826745 L15.3122925,205.826745 L15.3122925,89.7317274 L0,89.7317274 L0,61.6127903 L15.3122925,61.6127903 L15.3122925,43.0988367 C15.3122925,35.5818555 16.8899069,28.5985919 20.0451829,22.1488365 C23.200459,15.699081 28.0493031,10.4790335 34.5918608,6.48853732 C41.1344185,2.49804115 49.1848917,0.502822985 58.7435221,0.502822985 L79.7631236,0.502822985 L79.7631236,31.9626239 L65.2860471,31.9626239 C56.7482413,31.9626239 52.4794025,36.4170645 52.4794025,45.3260792 L52.4794025,61.6127903 L79.7631236,61.6127903 L79.7631236,89.7317274 Z M172.836678,205.826745 L151.817076,205.826745 C137.525532,205.826745 126.714234,201.673907 119.382857,193.368107 C112.05148,185.062307 108.385847,175.063016 108.385847,163.369934 L108.385847,2.86926819 L145.552957,2.86926819 L145.552957,161.003489 C145.552957,165.457996 146.573766,168.822027 148.615415,171.095682 C150.657064,173.369336 153.997895,174.506147 158.638007,174.506147 L172.836678,174.506147 L172.836678,205.826745 Z M323.679336,131.353323 C323.679336,140.540744 323.192131,148.614417 322.217708,155.574585 C321.243284,162.534753 319.503268,168.77561 316.997608,174.297343 C314.491948,179.819076 311.104717,184.807121 306.835814,189.261629 C295.328337,201.418722 279.923396,207.497177 260.620531,207.497177 C241.50327,207.497177 226.191131,201.418722 214.683654,189.261629 C211.435575,185.920748 208.744351,182.347916 206.609899,178.543024 C204.475448,174.738132 202.735432,170.469293 201.3898,165.736379 C200.044167,161.003465 199.116159,155.597816 198.605747,149.51927 C198.095334,143.440723 197.840132,137.385468 197.840132,131.353323 C197.840132,125.228375 198.095334,119.17312 198.605747,113.187375 C199.116159,107.201631 200.020967,101.911983 201.320198,97.3182724 C202.61943,92.7245616 204.359446,88.5021232 206.540298,84.6508304 C208.721151,80.7995376 211.435575,77.2035048 214.683654,73.8626243 C226.191131,61.7055313 241.50327,55.627076 260.620531,55.627076 C279.923396,55.627076 295.328337,61.7055313 306.835814,73.8626243 C313.239168,80.5443854 317.647208,88.2468555 320.060067,96.9702657 C322.472925,105.693676 323.679336,117.15458 323.679336,131.353323 Z M286.512226,131.353323 C286.512226,121.980297 285.978621,114.533029 284.911395,109.011296 C283.844169,103.489563 281.547349,98.9655215 278.020864,95.4390365 C273.473554,91.0773313 267.673501,88.8965115 260.620531,88.8965115 C253.753166,88.8965115 248.045914,91.0773313 243.498604,95.4390365 C239.972119,99.1511259 237.675298,103.860769 236.608072,109.568106 C235.540847,115.275444 235.007242,122.53711 235.007242,131.353323 C235.007242,140.262337 235.540847,147.616804 236.608072,153.416944 C237.675298,159.217084 239.972119,163.973127 243.498604,167.685217 C248.045914,172.046922 253.753166,174.227741 260.620531,174.227741 C267.673501,174.227741 273.473554,172.046922 278.020864,167.685217 C281.547349,164.158732 283.844169,159.58829 284.911395,153.973755 C285.978621,148.359219 286.512226,140.819151 286.512226,131.353323 Z M554.98113,57.2975079 L509.740266,205.826745 L479.115681,205.826745 L448.073488,112.560964 L417.031295,205.826745 L386.545913,205.826745 L340.887441,57.2975079 L380.281793,57.2975079 L404.224651,149.03206 L434.431628,57.2975079 L461.436944,57.2975079 L492.061529,149.03206 L516.004386,57.2975079 L554.98113,57.2975079 Z M700.534087,143.046346 L607.546711,143.046346 C607.546711,152.790581 610.446737,160.748253 616.246877,166.919602 C622.047017,173.090951 630.004689,176.176579 640.120133,176.176579 C648.008323,176.176579 654.318781,175.109369 659.051695,172.974918 C663.784609,170.840466 668.703054,167.267634 673.807177,162.256313 L696.218805,184.11113 C688.14501,192.184925 679.885735,198.100979 671.440731,201.859469 C662.995728,205.61796 652.462832,207.497177 639.841728,207.497177 C619.796445,207.497177 603.324295,201.720324 590.424784,190.166446 C577.525273,178.612567 571.075614,159.008389 571.075614,131.353323 C571.075614,115.669745 573.766839,102.097621 579.149368,90.6365447 C584.531898,79.1754685 592.118367,70.4753893 601.909003,64.5360462 C611.699639,58.596703 622.998142,55.627076 635.804851,55.627076 C649.168373,55.627076 660.745278,58.6431034 670.535914,64.6752488 C680.32655,70.7073942 687.773818,79.1754713 692.877941,90.0797341 C697.982064,100.983997 700.534087,113.164108 700.534087,126.620432 L700.534087,143.046346 Z M664.06299,117.711462 C663.784584,111.772119 662.624573,106.43607 660.582924,101.703156 C658.541275,97.1558465 655.409246,93.4670129 651.186745,90.6365447 C646.964243,87.8060765 641.836996,86.3908636 635.804851,86.3908636 C629.95831,86.3908636 624.900664,87.8060765 620.631761,90.6365447 C616.362858,93.4670129 613.161229,97.1558465 611.026777,101.703156 C608.985128,106.807279 607.825118,112.143328 607.546711,117.711462 L664.06299,117.711462 Z M844.973423,69.5473419 L816.993688,97.8054817 C814.024017,94.6502056 811.07759,92.3765849 808.154319,90.9845514 C805.231049,89.5925178 801.635016,88.8965115 797.366113,88.8965115 C790.962759,88.8965115 785.371508,91.2861332 780.592193,96.0654484 C775.812878,100.844764 773.423256,107.596025 773.423256,116.319435 L773.423256,205.826745 L736.395349,205.826745 L736.395349,57.2975079 L772.58804,57.2975079 L772.58804,71.4961791 C776.300129,67.0416717 781.496977,63.2832375 788.178738,60.2207637 C794.860499,57.1582899 802.098965,55.627076 809.894353,55.627076 C817.504136,55.627076 824.000195,56.6942857 829.382725,58.8287371 C834.765255,60.9631886 839.962102,64.5360211 844.973423,69.5473419 Z M989.969569,205.826745 L952.941661,205.826745 L952.941661,115.205814 C952.941661,106.111195 950.57524,99.4527342 945.842326,95.2302325 C941.109412,91.0077307 935.40216,88.8965115 928.720399,88.8965115 C922.038638,88.8965115 916.377786,91.0309309 911.737674,95.2998338 C907.097562,99.5687367 904.777541,106.203997 904.777541,115.205814 L904.777541,205.826745 L867.749634,205.826745 L867.749634,2.86926819 L904.777541,2.86926819 L904.777541,70.9393685 C909.69606,65.9280477 915.19451,62.1232131 921.273056,59.5247504 C927.351603,56.9262878 933.731661,55.627076 940.413422,55.627076 C948.487217,55.627076 955.632882,56.949488 961.850632,59.5943518 C968.068381,62.2392155 973.242029,65.9744495 977.371728,70.8001658 C981.501428,75.6258821 984.633456,81.3795345 986.767908,88.0612955 C988.902359,94.7430566 989.969569,101.981522 989.969569,109.77691 L989.969569,205.826745 Z M1143.73548,205.826745 L1107.54279,205.826745 L1107.54279,193.0201 C1102.71707,198.031421 1097.49703,201.650654 1091.88249,203.877908 C1086.26796,206.105162 1079.33109,207.218772 1071.07169,207.218772 C1062.8123,207.218772 1055.52743,206.128362 1049.21688,203.947509 C1042.90632,201.766657 1037.57028,198.495427 1033.20857,194.133722 C1025.04197,185.78152 1020.95874,174.645419 1020.95874,160.725084 C1020.95874,152.744091 1022.83795,145.482425 1026.59644,138.939867 C1030.35494,132.39731 1036.01579,127.223663 1043.57917,123.418771 C1051.14255,119.613879 1060.49224,117.711462 1071.6285,117.711462 L1106.70758,117.711462 L1106.70758,110.333721 C1106.70758,102.074322 1104.54996,96.1118676 1100.23465,92.4461793 C1095.91935,88.7804909 1088.88968,86.9476743 1079.14545,86.9476743 C1072.09248,86.9476743 1066.59403,87.8292823 1062.64993,89.5925248 C1058.70584,91.3557673 1054.6922,94.5573964 1050.6089,99.1975083 L1026.94445,76.0898669 C1033.81182,68.3872812 1041.28228,63.0512326 1049.35608,60.0815611 C1057.42987,57.1118895 1067.82357,55.627076 1080.53748,55.627076 C1101.32518,55.627076 1117.05492,60.0351161 1127.72718,68.8513286 C1138.39943,77.6675411 1143.73548,90.7524602 1143.73548,108.106478 L1143.73548,205.826745 Z M1106.70758,151.1201 L1106.70758,143.046346 L1077.33581,143.046346 C1070.74686,143.046346 1065.64281,144.531159 1062.02352,147.500831 C1058.40423,150.470503 1056.59462,154.60014 1056.59462,159.889868 C1056.59462,165.272397 1058.38103,169.471636 1061.95392,172.487708 C1065.52681,175.503781 1070.83965,177.011795 1077.89262,177.011795 C1083.36796,177.011795 1087.8688,176.54779 1091.39528,175.619768 C1094.92177,174.691746 1098.2162,172.789328 1101.27867,169.912459 C1104.89796,166.571579 1106.70758,160.307522 1106.70758,151.1201 Z M1307.10638,205.826745 L1270.91369,205.826745 L1270.91369,192.184885 C1261.16945,202.393131 1248.82694,207.497177 1233.88578,207.497177 C1219.22303,207.497177 1207.53012,203.135537 1198.80671,194.412127 C1193.23858,188.843993 1189.31774,182.603136 1187.04409,175.689369 C1184.77043,168.775603 1183.63362,160.957132 1183.63362,152.233721 L1183.63362,57.2975079 L1220.66153,57.2975079 L1220.66153,147.083223 C1220.66153,156.549051 1223.07435,163.439514 1227.90007,167.754818 C1232.72578,172.070122 1238.52584,174.227741 1245.3004,174.227741 C1252.16776,174.227741 1258.01422,172.070122 1262.83993,167.754818 C1267.66565,163.439514 1270.07847,156.549051 1270.07847,147.083223 L1270.07847,57.2975079 L1307.10638,57.2975079 L1307.10638,205.826745 Z M1462.12512,159.054652 C1462.12512,174.831032 1456.25546,186.848741 1444.51598,195.10814 C1432.7765,203.367539 1417.67316,207.497177 1399.20552,207.497177 C1390.2037,207.497177 1382.22283,206.986772 1375.26266,205.965948 C1368.30249,204.945123 1361.48163,202.880304 1354.79987,199.771429 C1348.11811,196.662555 1341.80765,192.138513 1335.86831,186.19917 L1360.08957,161.977908 C1369.36979,171.258131 1382.59391,175.898173 1399.76233,175.898173 C1406.8153,175.898173 1412.94015,174.622162 1418.13708,172.0701 C1423.334,169.518039 1425.93243,165.643604 1425.93243,160.446678 C1425.93243,152.372884 1420.73558,147.825642 1410.34173,146.804818 L1386.95568,144.577575 C1372.84974,143.092739 1362.08484,139.055903 1354.66066,132.466944 C1347.23649,125.877985 1343.52445,116.041095 1343.52445,102.95598 C1343.52445,88.2004244 1349.0693,76.623519 1360.15917,68.2249166 C1371.24904,59.8263142 1384.82116,55.627076 1400.87595,55.627076 C1426.39656,55.627076 1445.32793,61.4271288 1457.67063,73.0274084 L1434.8414,96.1350498 C1427.41722,89.4532887 1415.90991,86.1124583 1400.31914,86.1124583 C1393.35897,86.1124583 1388.09252,87.4580706 1384.51963,90.1493354 C1380.94675,92.8406003 1379.16033,96.2278311 1379.16033,100.31113 C1379.16033,108.013715 1384.31078,112.282554 1394.61183,113.117774 L1417.99787,115.484219 C1427.74211,116.505044 1435.88538,118.825065 1442.42794,122.444352 C1448.9705,126.06364 1453.88894,131.005285 1457.18342,137.269436 C1460.4779,143.533586 1462.12512,150.795253 1462.12512,159.054652 Z M1541,181.883888 C1541,186.338395 1539.86319,190.468033 1537.58953,194.272924 C1535.31588,198.077816 1532.23025,201.093844 1528.33256,203.321097 C1524.43486,205.548351 1520.30523,206.661961 1515.94352,206.661961 C1509.26176,206.661961 1503.46171,204.202739 1498.54319,199.28422 C1493.62467,194.365702 1491.16545,188.565649 1491.16545,181.883888 C1491.16545,175.016522 1493.62467,169.170069 1498.54319,164.344353 C1503.46171,159.518636 1509.26176,157.105814 1515.94352,157.105814 C1520.30523,157.105814 1524.43486,158.219425 1528.33256,160.446678 C1532.23025,162.673932 1535.31588,165.689959 1537.58953,169.494851 C1539.86319,173.299743 1541,177.42938 1541,181.883888 Z"/>
</svg>