<svg xmlns="http://www.w3.org/2000/svg" width="687" height="580" viewBox="0 0 687 580">
  <path fill="#FFF" fill-rule="evenodd" d="M296.35746,235.945765 L181.765917,423.846637 L181.765917,814.054235 L867.656677,814.054235 L867.656677,423.870766 L754.053123,235.945765 L296.35746,235.945765 Z M323.459867,259.366703 L727.156442,259.366703 L636.968747,415.424598 L632.016101,415.424598 L415.722594,415.424598 L323.459867,259.366703 Z M302.775582,270.402216 L388.516055,415.424598 L214.334013,415.424598 L302.775582,270.402216 Z M747.698496,270.706994 L835.183824,415.424598 L664.450856,415.424598 L747.698496,270.706994 Z M655.437039,790.633297 L844.237008,790.633297 L844.237008,438.845537 L655.437039,438.845537 L655.437039,790.633297 Z M420.752705,790.633297 L632.016101,790.633297 L632.016101,438.845537 L420.752705,438.845537 L420.752705,790.633297 Z M205.186856,790.633297 L397.331766,790.633297 L397.331766,438.845537 L205.186856,438.845537 L205.186856,790.633297 Z" transform="translate(-181 -235)"/>
</svg>