<svg xmlns="http://www.w3.org/2000/svg" xmlns:xlink="http://www.w3.org/1999/xlink" height="300px" width="300px" fill="#FFFFFF" version="1.1" viewBox="0 0 96 96" x="0px" y="0px"><path d="M41.928 43.196c-1.508 0-2.84-0.964-3.3-2.384l-8.968-27.812c-0.548-2.040-2.764-3.204-4.86-2.64-2.092 0.572-3.404 2.732-2.864 4.724l7.76 24.612c0.332 1.060-0.252 2.18-1.308 2.508-1.060 0.344-2.176-0.252-2.508-1.304l-7.78-24.696c-1.128-4.156 1.472-8.572 5.66-9.696 4.252-1.148 8.628 1.244 9.74 5.352l8.312 25.756 6.952-30.436c0.328-1.94 1.496-3.748 3.272-4.944 1.744-1.18 3.844-1.616 5.9-1.292 2.056 0.348 3.88 1.448 5.132 3.104 1.288 1.712 1.812 3.772 1.46 5.836l-5.416 27.884c-0.212 1.080-1.276 1.78-2.344 1.584-1.084-0.22-1.792-1.26-1.584-2.352l5.412-27.828c0.152-0.916-0.096-1.896-0.716-2.704-0.632-0.828-1.584-1.412-2.612-1.584-1.020-0.172-2.108 0.072-2.98 0.656-0.868 0.584-1.436 1.444-1.6 2.416l-7.436 32.568c-0.34 1.496-1.652 2.588-3.188 2.668-0.048 0.004-0.092 0.004-0.136 0.004z" fill="#FFFFFF"/><path d="M58.156 95.164h-22.6c-0.24 0-0.48-0.048-0.704-0.128-0.756-0.284-18.548-7.172-18.548-23.964v-19.6l-8.336-26.784c-0.568-2.088-0.256-4.2 0.848-6.040 1.084-1.804 2.792-3.1 4.812-3.652 2.008-0.552 4.136-0.312 5.968 0.668 1.888 1.008 3.228 2.672 3.772 4.684l7.38 23.224c0.332 1.056-0.248 2.18-1.3 2.516-1.060 0.328-2.176-0.252-2.512-1.304l-7.404-23.3c-0.276-1.024-0.916-1.796-1.82-2.284-0.916-0.484-2.024-0.616-3.036-0.336-1 0.268-1.884 0.94-2.428 1.852-0.54 0.9-0.696 1.916-0.436 2.864l8.408 27.008c0.060 0.192 0.088 0.392 0.088 0.592v19.908c0 12.9 13.408 19.14 15.648 20.092h22.208c6.928 0 13.636-14.596 18.532-25.256 2.428-5.28 4.524-9.848 6.508-12.64 1.18-1.66 1.704-4.192 0.068-5.832-1.528-1.528-4.544-1.612-5.98-0.184l-9.584 9.348c-0.788 0.768-2.056 0.752-2.828-0.040-0.768-0.784-0.752-2.052 0.040-2.828l9.568-9.328c2.984-2.972 8.528-2.888 11.616 0.204 2.808 2.816 2.956 7.328 0.368 10.976-1.768 2.488-3.888 7.104-6.136 11.992-5.952 12.916-12.688 27.572-22.18 27.572z" fill="#FFFFFF"/><path d="M66.3 57.164c-0.12 0-0.248-0.012-0.368-0.036-1.084-0.204-1.804-1.248-1.6-2.332l7.404-39.58c0.156-0.932-0.092-1.932-0.72-2.772-0.624-0.848-1.576-1.428-2.592-1.6-1.032-0.188-2.124 0.056-2.992 0.62-0.852 0.576-1.416 1.412-1.58 2.372l-3.412 16.072c-0.232 1.084-1.28 1.756-2.372 1.552-1.084-0.24-1.768-1.292-1.54-2.372l3.396-15.992c0.332-1.98 1.508-3.756 3.284-4.944 1.736-1.148 3.828-1.584 5.876-1.248 2.064 0.348 3.888 1.472 5.14 3.168 1.276 1.736 1.788 3.808 1.44 5.864l-7.408 39.596c-0.172 0.96-1.012 1.632-1.956 1.632z" fill="#FFFFFF"/></svg>